<svg xmlns="http://www.w3.org/2000/svg" xmlns:xlink="http://www.w3.org/1999/xlink" width="242.943" height="111.754" viewBox="0 0 242.943 111.754">
  <defs>
    <linearGradient id="linear-gradient" x1="-0.12" y1="-0.622" x2="1" y2="1" gradientUnits="objectBoundingBox">
      <stop offset="0" stop-color="#fff"/>
      <stop offset="1" stop-color="#93a5ff" stop-opacity="0"/>
    </linearGradient>
  </defs>
  <path id="Dotted_Square_1" data-name="Dotted Square 1" d="M236.14,204.493a3.4,3.4,0,1,1,3.4,3.4A3.4,3.4,0,0,1,236.14,204.493Zm-26.238,0a3.4,3.4,0,1,1,3.4,3.4A3.4,3.4,0,0,1,209.9,204.493Zm-26.237,0a3.4,3.4,0,1,1,3.4,3.4A3.4,3.4,0,0,1,183.665,204.493Zm-26.238,0a3.4,3.4,0,1,1,3.4,3.4A3.4,3.4,0,0,1,157.427,204.493Zm-26.238,0a3.4,3.4,0,1,1,3.4,3.4A3.4,3.4,0,0,1,131.189,204.493Zm-26.237,0a3.4,3.4,0,1,1,3.4,3.4A3.4,3.4,0,0,1,104.952,204.493Zm-26.238,0a3.4,3.4,0,1,1,3.4,3.4A3.4,3.4,0,0,1,78.713,204.493Zm-26.237,0a3.4,3.4,0,1,1,3.4,3.4A3.4,3.4,0,0,1,52.476,204.493Zm-26.238,0a3.4,3.4,0,1,1,3.4,3.4A3.4,3.4,0,0,1,26.238,204.493ZM0,204.493a3.4,3.4,0,1,1,3.4,3.4A3.4,3.4,0,0,1,0,204.493Zm236.14-26.237a3.4,3.4,0,1,1,3.4,3.4A3.4,3.4,0,0,1,236.14,178.256Zm-26.238,0a3.4,3.4,0,1,1,3.4,3.4A3.4,3.4,0,0,1,209.9,178.256Zm-26.237,0a3.4,3.4,0,1,1,3.4,3.4A3.4,3.4,0,0,1,183.665,178.256Zm-26.238,0a3.4,3.4,0,1,1,3.4,3.4A3.4,3.4,0,0,1,157.427,178.256Zm-26.238,0a3.4,3.4,0,1,1,3.4,3.4A3.4,3.4,0,0,1,131.189,178.256Zm-26.237,0a3.4,3.4,0,1,1,3.4,3.4A3.4,3.4,0,0,1,104.952,178.256Zm-26.238,0a3.4,3.4,0,1,1,3.4,3.4A3.4,3.4,0,0,1,78.713,178.256Zm-26.237,0a3.4,3.4,0,1,1,3.4,3.4A3.4,3.4,0,0,1,52.476,178.256Zm-26.238,0a3.4,3.4,0,1,1,3.4,3.4A3.4,3.4,0,0,1,26.238,178.256ZM0,178.256a3.4,3.4,0,1,1,3.4,3.4A3.4,3.4,0,0,1,0,178.256Zm236.14-26.238a3.4,3.4,0,1,1,3.4,3.4A3.4,3.4,0,0,1,236.14,152.018Zm-26.238,0a3.4,3.4,0,1,1,3.4,3.4A3.4,3.4,0,0,1,209.9,152.018Zm-26.237,0a3.4,3.4,0,1,1,3.4,3.4A3.4,3.4,0,0,1,183.665,152.018Zm-26.238,0a3.4,3.4,0,1,1,3.4,3.4A3.4,3.4,0,0,1,157.427,152.018Zm-26.238,0a3.4,3.4,0,1,1,3.4,3.4A3.4,3.4,0,0,1,131.189,152.018Zm-26.237,0a3.4,3.4,0,1,1,3.4,3.4A3.4,3.4,0,0,1,104.952,152.018Zm-26.238,0a3.4,3.4,0,1,1,3.4,3.4A3.4,3.4,0,0,1,78.713,152.018Zm-26.237,0a3.4,3.4,0,1,1,3.4,3.4A3.4,3.4,0,0,1,52.476,152.018Zm-26.238,0a3.4,3.4,0,1,1,3.4,3.4A3.4,3.4,0,0,1,26.238,152.018ZM0,152.018a3.4,3.4,0,1,1,3.4,3.4A3.4,3.4,0,0,1,0,152.018Zm236.14-26.237a3.4,3.4,0,1,1,3.4,3.4A3.4,3.4,0,0,1,236.14,125.781Zm-26.238,0a3.4,3.4,0,1,1,3.4,3.4A3.4,3.4,0,0,1,209.9,125.781Zm-26.237,0a3.4,3.4,0,1,1,3.4,3.4A3.4,3.4,0,0,1,183.665,125.781Zm-26.238,0a3.4,3.4,0,1,1,3.4,3.4A3.4,3.4,0,0,1,157.427,125.781Zm-26.238,0a3.4,3.4,0,1,1,3.4,3.4A3.4,3.4,0,0,1,131.189,125.781Zm-26.237,0a3.4,3.4,0,1,1,3.4,3.4A3.4,3.4,0,0,1,104.952,125.781Zm-26.238,0a3.4,3.4,0,1,1,3.4,3.4A3.4,3.4,0,0,1,78.713,125.781Zm-26.237,0a3.4,3.4,0,1,1,3.4,3.4A3.4,3.4,0,0,1,52.476,125.781Zm-26.238,0a3.4,3.4,0,1,1,3.4,3.4A3.4,3.4,0,0,1,26.238,125.781ZM0,125.781a3.4,3.4,0,1,1,3.4,3.4A3.4,3.4,0,0,1,0,125.781ZM236.14,99.543a3.4,3.4,0,1,1,3.4,3.4A3.4,3.4,0,0,1,236.14,99.543Zm-26.238,0a3.4,3.4,0,1,1,3.4,3.4A3.4,3.4,0,0,1,209.9,99.543Zm-26.237,0a3.4,3.4,0,1,1,3.4,3.4A3.4,3.4,0,0,1,183.665,99.543Zm-26.238,0a3.4,3.4,0,1,1,3.4,3.4A3.4,3.4,0,0,1,157.427,99.543Zm-26.238,0a3.4,3.4,0,1,1,3.4,3.4A3.4,3.4,0,0,1,131.189,99.543Zm-26.237,0a3.4,3.4,0,1,1,3.4,3.4A3.4,3.4,0,0,1,104.952,99.543Zm-26.238,0a3.4,3.4,0,1,1,3.4,3.4A3.4,3.4,0,0,1,78.713,99.543Zm-26.237,0a3.4,3.4,0,1,1,3.4,3.4A3.4,3.4,0,0,1,52.476,99.543Zm-26.238,0a3.4,3.4,0,1,1,3.4,3.4A3.4,3.4,0,0,1,26.238,99.543ZM0,99.543a3.4,3.4,0,1,1,3.4,3.4A3.4,3.4,0,0,1,0,99.543Z" transform="translate(242.943 207.895) rotate(-180)" opacity="0.513" fill="url(#linear-gradient)"/>
</svg>
