<svg xmlns="http://www.w3.org/2000/svg" width="81.898" height="178.039" viewBox="0 0 81.898 178.039">
  <path id="Dotted_Square_1" data-name="Dotted Square 1" d="M173.054,175.546a2.493,2.493,0,1,1,2.493,2.493A2.493,2.493,0,0,1,173.054,175.546Zm-19.229,0a2.493,2.493,0,1,1,2.493,2.493A2.493,2.493,0,0,1,153.825,175.546Zm-19.228,0a2.493,2.493,0,1,1,2.492,2.493A2.492,2.492,0,0,1,134.6,175.546Zm-19.229,0a2.493,2.493,0,1,1,2.493,2.493A2.493,2.493,0,0,1,115.369,175.546Zm-19.229,0a2.493,2.493,0,1,1,2.493,2.493A2.493,2.493,0,0,1,96.141,175.546Zm-19.228,0a2.493,2.493,0,1,1,2.492,2.493A2.492,2.492,0,0,1,76.913,175.546Zm-19.229,0a2.493,2.493,0,1,1,2.493,2.493A2.493,2.493,0,0,1,57.685,175.546Zm-19.228,0a2.493,2.493,0,1,1,2.492,2.493A2.492,2.492,0,0,1,38.457,175.546Zm-19.229,0a2.493,2.493,0,1,1,2.492,2.493A2.492,2.492,0,0,1,19.229,175.546ZM0,175.546a2.493,2.493,0,1,1,2.493,2.493A2.493,2.493,0,0,1,0,175.546Zm173.054-19.228a2.493,2.493,0,1,1,2.493,2.492A2.493,2.493,0,0,1,173.054,156.318Zm-19.229,0a2.493,2.493,0,1,1,2.493,2.492A2.493,2.493,0,0,1,153.825,156.318Zm-19.228,0a2.493,2.493,0,1,1,2.492,2.492A2.493,2.493,0,0,1,134.6,156.318Zm-19.229,0a2.493,2.493,0,1,1,2.493,2.492A2.493,2.493,0,0,1,115.369,156.318Zm-19.229,0a2.493,2.493,0,1,1,2.493,2.492A2.493,2.493,0,0,1,96.141,156.318Zm-19.228,0a2.493,2.493,0,1,1,2.492,2.492A2.493,2.493,0,0,1,76.913,156.318Zm-19.229,0a2.493,2.493,0,1,1,2.493,2.492A2.493,2.493,0,0,1,57.685,156.318Zm-19.228,0a2.493,2.493,0,1,1,2.492,2.492A2.493,2.493,0,0,1,38.457,156.318Zm-19.229,0a2.493,2.493,0,1,1,2.492,2.492A2.493,2.493,0,0,1,19.229,156.318ZM0,156.318a2.493,2.493,0,1,1,2.493,2.492A2.493,2.493,0,0,1,0,156.318ZM173.054,137.09a2.493,2.493,0,1,1,2.493,2.493A2.493,2.493,0,0,1,173.054,137.09Zm-19.229,0a2.493,2.493,0,1,1,2.493,2.493A2.493,2.493,0,0,1,153.825,137.09Zm-19.228,0a2.493,2.493,0,1,1,2.492,2.493A2.492,2.492,0,0,1,134.6,137.09Zm-19.229,0a2.493,2.493,0,1,1,2.493,2.493A2.493,2.493,0,0,1,115.369,137.09Zm-19.229,0a2.493,2.493,0,1,1,2.493,2.493A2.493,2.493,0,0,1,96.141,137.09Zm-19.228,0a2.493,2.493,0,1,1,2.492,2.493A2.492,2.492,0,0,1,76.913,137.09Zm-19.229,0a2.493,2.493,0,1,1,2.493,2.493A2.493,2.493,0,0,1,57.685,137.09Zm-19.228,0a2.493,2.493,0,1,1,2.492,2.493A2.492,2.492,0,0,1,38.457,137.09Zm-19.229,0a2.493,2.493,0,1,1,2.492,2.493A2.492,2.492,0,0,1,19.229,137.09ZM0,137.09a2.493,2.493,0,1,1,2.493,2.493A2.493,2.493,0,0,1,0,137.09Zm173.054-19.228a2.493,2.493,0,1,1,2.493,2.492A2.493,2.493,0,0,1,173.054,117.862Zm-19.229,0a2.493,2.493,0,1,1,2.493,2.492A2.493,2.493,0,0,1,153.825,117.862Zm-19.228,0a2.493,2.493,0,1,1,2.492,2.492A2.493,2.493,0,0,1,134.6,117.862Zm-19.229,0a2.493,2.493,0,1,1,2.493,2.492A2.493,2.493,0,0,1,115.369,117.862Zm-19.229,0a2.493,2.493,0,1,1,2.493,2.492A2.493,2.493,0,0,1,96.141,117.862Zm-19.228,0a2.493,2.493,0,1,1,2.492,2.492A2.493,2.493,0,0,1,76.913,117.862Zm-19.229,0a2.493,2.493,0,1,1,2.493,2.492A2.493,2.493,0,0,1,57.685,117.862Zm-19.228,0a2.493,2.493,0,1,1,2.492,2.492A2.493,2.493,0,0,1,38.457,117.862Zm-19.229,0a2.493,2.493,0,1,1,2.492,2.492A2.493,2.493,0,0,1,19.229,117.862ZM0,117.862a2.493,2.493,0,1,1,2.493,2.492A2.493,2.493,0,0,1,0,117.862ZM173.054,98.634a2.493,2.493,0,1,1,2.493,2.492A2.493,2.493,0,0,1,173.054,98.634Zm-19.229,0a2.493,2.493,0,1,1,2.493,2.492A2.493,2.493,0,0,1,153.825,98.634Zm-19.228,0a2.493,2.493,0,1,1,2.492,2.492A2.493,2.493,0,0,1,134.6,98.634Zm-19.229,0a2.493,2.493,0,1,1,2.493,2.492A2.493,2.493,0,0,1,115.369,98.634Zm-19.229,0a2.493,2.493,0,1,1,2.493,2.492A2.493,2.493,0,0,1,96.141,98.634Zm-19.228,0a2.493,2.493,0,1,1,2.492,2.492A2.493,2.493,0,0,1,76.913,98.634Zm-19.229,0a2.493,2.493,0,1,1,2.493,2.492A2.493,2.493,0,0,1,57.685,98.634Zm-19.228,0a2.493,2.493,0,1,1,2.492,2.492A2.493,2.493,0,0,1,38.457,98.634Zm-19.229,0a2.493,2.493,0,1,1,2.492,2.492A2.493,2.493,0,0,1,19.229,98.634ZM0,98.634a2.493,2.493,0,1,1,2.493,2.492A2.493,2.493,0,0,1,0,98.634Z" transform="translate(-96.141 178.039) rotate(-90)" fill="#fff" opacity="0.2"/>
</svg>
