<svg id="Group_1" data-name="Group 1" xmlns="http://www.w3.org/2000/svg" width="368.228" height="53.048" viewBox="0 0 368.228 53.048">
  <path id="Path_1" data-name="Path 1" d="M277.12,0h5.627l9.98,21.081L302.6,0h5.7L295.773,25.707h-6.127Z" transform="translate(-212.287)" fill="#195cd4"/>
  <path id="Path_2" data-name="Path 2" d="M411.866,0h6.127l12.526,25.707h-5.627l-2.274-4.857H407.241l-2.274,4.857H399.34Zm8.673,16.419L414.949,4.511l-5.627,11.908Z" transform="translate(-305.914)" fill="#195cd4"/>
  <path id="Path_3" data-name="Path 3" d="M531.938,15.261,519.26,0h6.551l8.633,10.638L542.959,0h6.63l-12.64,15.261V25.7h-5.011Z" transform="translate(-397.778)" fill="#195cd4"/>
  <path id="Path_4" data-name="Path 4" d="M712.14,0h24.242V4.431H717.151V10.4h18.576v4.431H717.151v6.436h19.231V25.7H712.14Z" transform="translate(-545.534)" fill="#195cd4"/>
  <path id="Path_5" data-name="Path 5" d="M837.8,12.449,826.2,0h6.86l8.17,9.211L849.364,0H856.3L844.7,12.409,857,25.7h-6.822l-8.942-9.98-8.9,9.98H825.47L837.8,12.446Z" transform="translate(-632.35)" fill="#195cd4"/>
  <path id="Path_6" data-name="Path 6" d="M974.04,0h5.009V25.707H974.04Z" transform="translate(-746.162)" fill="#195cd4"/>
  <path id="Path_7" data-name="Path 7" d="M1021.472,0h7.091l9.1,18.344L1046.753,0h7.091V25.707h-5.011V5.781l-9.905,19.926h-2.543l-9.906-19.926V25.707h-5.009V0Z" transform="translate(-782.496)" fill="#195cd4"/>
  <path id="Path_8" data-name="Path 8" d="M1235.772,0h5.009V21.273h16.571V25.7H1235.77V0Z" transform="translate(-946.66)" fill="#195cd4"/>
  <path id="Path_9" data-name="Path 9" d="M1346.623,0h5.009V21.273H1368.2V25.7H1346.62V0Z" transform="translate(-1031.576)" fill="#195cd4"/>
  <path id="Path_10" data-name="Path 10" d="M1457.49,0h18.035c5.781,0,9.211,3.161,9.211,8.17s-3.507,8.17-9.211,8.17H1462.5V25.7h-5.009V0Zm17.689,11.908c2.852,0,4.394-1.31,4.394-3.739s-1.542-3.739-4.394-3.739H1462.5v7.477Z" transform="translate(-1116.508)" fill="#195cd4"/>
  <path id="Path_11" data-name="Path 11" d="M339.228,165.754a3.1,3.1,0,0,1-1.327,2.669,2.833,2.833,0,0,1,1.2,2.637v2.784h-1.5v-2.768a2.138,2.138,0,0,0-.437-1.376,1.836,1.836,0,0,0-1.247-.662,4.592,4.592,0,0,0-.632-.033H332.2v4.838h-1.5V162.42h4.239a10.649,10.649,0,0,1,1.619.1,3.072,3.072,0,0,1,1.975,1.069A3.331,3.331,0,0,1,339.228,165.754Zm-1.5.009a2.147,2.147,0,0,0-.437-1.38,1.849,1.849,0,0,0-1.247-.667,8.1,8.1,0,0,0-1.05-.049H332.2v4.061h3.027Q337.723,167.728,337.723,165.763Z" transform="translate(-253.332 -124.422)"/>
  <path id="Path_12" data-name="Path 12" d="M400.627,181.685a4.236,4.236,0,0,1-.954,2.88,3.459,3.459,0,0,1-2.768,1.165,3.52,3.52,0,0,1-2.768-1.132,4.07,4.07,0,0,1-.987-2.847,4.322,4.322,0,0,1,.987-2.929,3.548,3.548,0,0,1,2.814-1.181,3.355,3.355,0,0,1,2.735,1.181,4.268,4.268,0,0,1,.938,2.864Zm-1.247-.161a3.288,3.288,0,0,0-.566-2.007,2.119,2.119,0,0,0-1.829-.842,2.319,2.319,0,0,0-1.991.922,3.559,3.559,0,0,0-.6,2.169,3.255,3.255,0,0,0,.582,2.07,2.243,2.243,0,0,0,1.909.859,2.194,2.194,0,0,0,1.942-.987,3.872,3.872,0,0,0,.55-2.185Z" transform="translate(-301.172 -136.081)"/>
  <path id="Path_13" data-name="Path 13" d="M458.857,181.685a4.236,4.236,0,0,1-.954,2.88,3.459,3.459,0,0,1-2.768,1.165,3.52,3.52,0,0,1-2.768-1.132,4.07,4.07,0,0,1-.987-2.847,4.321,4.321,0,0,1,.987-2.929,3.548,3.548,0,0,1,2.814-1.181,3.355,3.355,0,0,1,2.735,1.181,4.268,4.268,0,0,1,.938,2.864Zm-1.245-.161a3.288,3.288,0,0,0-.566-2.007,2.119,2.119,0,0,0-1.829-.842,2.319,2.319,0,0,0-1.991.922,3.558,3.558,0,0,0-.6,2.169,3.255,3.255,0,0,0,.583,2.07,2.243,2.243,0,0,0,1.909.859,2.194,2.194,0,0,0,1.942-.987,3.872,3.872,0,0,0,.55-2.185Z" transform="translate(-345.779 -136.081)"/>
  <path id="Path_14" data-name="Path 14" d="M510.817,171.956h-1.359v4.22a.967.967,0,0,0,1.036,1.088v1.247q-2.313-.049-2.314-2.024v-4.532h-1.31v-1.067h1.31V168.51h1.277v2.379h1.359Z" transform="translate(-388.287 -129.087)"/>
  <path id="Path_15" data-name="Path 15" d="M556.445,181.9h-5.793v.112a2.937,2.937,0,0,0,.632,1.942,2.23,2.23,0,0,0,1.827.809,1.871,1.871,0,0,0,1.925-1.408h1.343A3.374,3.374,0,0,1,553,185.73a3.473,3.473,0,0,1-2.8-1.181,4.356,4.356,0,0,1-.938-2.929,4.033,4.033,0,0,1,.955-2.831,3.475,3.475,0,0,1,2.735-1.149,3.16,3.16,0,0,1,2.7,1.277A5.04,5.04,0,0,1,556.445,181.9Zm-1.408-1.083a2.2,2.2,0,0,0-4.387,0h4.384Z" transform="translate(-420.76 -136.081)"/>
  <path id="Path_16" data-name="Path 16" d="M613.956,173.79h-1.277v-.826a3.062,3.062,0,0,1-2.611,1.053,3.209,3.209,0,0,1-2.66-1.2,4.359,4.359,0,0,1-.877-2.831,4.446,4.446,0,0,1,.877-2.847,3.565,3.565,0,0,1,5.271-.1V162.35h1.277Zm-1.28-3.219v-1.149a2.317,2.317,0,0,0-2.564-2.314,2.09,2.09,0,0,0-1.8.842,3.213,3.213,0,0,0-.569,1.975,3.671,3.671,0,0,0,.552,2.07,2.075,2.075,0,0,0,1.834.938A2.328,2.328,0,0,0,612.676,170.571Z" transform="translate(-464.632 -124.368)"/>
  <path id="Path_17" data-name="Path 17" d="M708.467,164.608a.771.771,0,0,1-.183.51.564.564,0,0,1-.449.218.545.545,0,0,1-.442-.218.788.788,0,0,1-.173-.51.8.8,0,0,1,.173-.51.539.539,0,0,1,.442-.218.561.561,0,0,1,.449.218A.771.771,0,0,1,708.467,164.608Zm0,10.355H707.22V167.34h1.247Z" transform="translate(-541.765 -125.54)"/>
  <path id="Path_18" data-name="Path 18" d="M748.407,185.5H747.13v-4.337a4.836,4.836,0,0,0-.18-1.649c-.194-.454-.655-.674-1.38-.664a1.916,1.916,0,0,0-1.722.955,3.743,3.743,0,0,0-.47,1.991V185.5H742.1v-7.622h1.277v.955a2.363,2.363,0,0,1,2.225-1.2,3.135,3.135,0,0,1,1.663.47,2.218,2.218,0,0,1,1.015,1.277,6.369,6.369,0,0,1,.129,1.57v4.546Z" transform="translate(-568.484 -136.073)"/>
  <path id="Path_19" data-name="Path 19" d="M842.885,183.4a2.072,2.072,0,0,1-1.05,1.844,3.935,3.935,0,0,1-2.152.566q-3.043,0-3.462-2.459h1.439q.161,1.474,2.087,1.472,1.8,0,1.8-1.261a.955.955,0,0,0-.517-.889,3.681,3.681,0,0,0-1.067-.323l-.727-.145a5.937,5.937,0,0,1-1.827-.6,1.8,1.8,0,0,1-.905-1.619,1.949,1.949,0,0,1,.938-1.748,3.613,3.613,0,0,1,2.007-.517,3.779,3.779,0,0,1,2.087.55,2.6,2.6,0,0,1,1.149,1.764h-1.4q-.26-1.327-2-1.327a1.877,1.877,0,0,0-1.006.26.96.96,0,0,0-.5.859.872.872,0,0,0,.536.777,5.665,5.665,0,0,0,1.3.421l.73.178a5.675,5.675,0,0,1,1.607.583,1.814,1.814,0,0,1,.941,1.619Z" transform="translate(-640.585 -136.142)"/>
  <path id="Path_20" data-name="Path 20" d="M898.6,186.292h-1.277v-1a2.881,2.881,0,0,1-2.442,1.2,2.773,2.773,0,0,1-1.6-.454,2.049,2.049,0,0,1-.905-1.376,10.788,10.788,0,0,1-.065-1.521V178.67h1.277v4.351a4.255,4.255,0,0,0,.194,1.586,1.359,1.359,0,0,0,1.359.664q2.183,0,2.185-3.268V178.67H898.6Z" transform="translate(-683.553 -136.87)"/>
  <path id="Path_21" data-name="Path 21" d="M953.545,183.4a2.072,2.072,0,0,1-1.051,1.844,3.935,3.935,0,0,1-2.152.566q-3.042,0-3.462-2.459h1.439q.162,1.474,2.087,1.472,1.8,0,1.8-1.261a.955.955,0,0,0-.517-.889,3.682,3.682,0,0,0-1.067-.323l-.728-.145a5.936,5.936,0,0,1-1.827-.6,1.8,1.8,0,0,1-.905-1.619,1.949,1.949,0,0,1,.938-1.748,3.614,3.614,0,0,1,2.007-.517,3.78,3.78,0,0,1,2.087.55,2.6,2.6,0,0,1,1.149,1.764h-1.4q-.26-1.327-2-1.327a1.877,1.877,0,0,0-1.006.26.961.961,0,0,0-.5.859.872.872,0,0,0,.536.777,5.665,5.665,0,0,0,1.3.421l.73.178a5.676,5.676,0,0,1,1.607.583,1.814,1.814,0,0,1,.94,1.619Z" transform="translate(-725.356 -136.142)"/>
  <path id="Path_22" data-name="Path 22" d="M1003.607,171.956h-1.359v4.22a.967.967,0,0,0,1.036,1.088v1.247q-2.312-.049-2.314-2.024v-4.532h-1.31v-1.067h1.31V168.51h1.277v2.379h1.359Z" transform="translate(-765.788 -129.087)"/>
  <path id="Path_23" data-name="Path 23" d="M1048,185.449h-1.247v-.632a3.388,3.388,0,0,1-2.541.842,2.9,2.9,0,0,1-1.8-.55,1.938,1.938,0,0,1-.793-1.635,2.263,2.263,0,0,1,1.326-2.07,8.858,8.858,0,0,1,2.541-.583,2.527,2.527,0,0,0,1.214-.47l-.066-.517c-.161-.744-.751-1.116-1.764-1.116q-1.684,0-1.682,1.376h-1.359a2.635,2.635,0,0,1,2.995-2.524,4.186,4.186,0,0,1,1.893.4,2.06,2.06,0,0,1,1.181,1.425,7.11,7.11,0,0,1,.1,1.408v4.644Zm-1.245-3.867a3.135,3.135,0,0,1-1.24.356,6.9,6.9,0,0,0-1.649.388,1.193,1.193,0,0,0-.817,1.116.989.989,0,0,0,.456.873,1.772,1.772,0,0,0,1,.26,1.973,1.973,0,0,0,1.893-.873A4.569,4.569,0,0,0,1046.753,181.582Z" transform="translate(-797.932 -136.027)"/>
  <path id="Path_24" data-name="Path 24" d="M1100.7,164.608a.772.772,0,0,1-.182.51.565.565,0,0,1-.449.218.544.544,0,0,1-.442-.218.787.787,0,0,1-.173-.51.8.8,0,0,1,.173-.51.539.539,0,0,1,.442-.218.561.561,0,0,1,.449.218A.772.772,0,0,1,1100.7,164.608Zm0,10.355h-1.247V167.34h1.247Z" transform="translate(-842.232 -125.54)"/>
  <path id="Path_25" data-name="Path 25" d="M1140.628,185.5h-1.277v-4.337a4.834,4.834,0,0,0-.18-1.649c-.194-.454-.655-.674-1.38-.664a1.917,1.917,0,0,0-1.722.955,3.745,3.745,0,0,0-.47,1.991V185.5h-1.277v-7.622h1.277v.955a2.363,2.363,0,0,1,2.225-1.2,3.135,3.135,0,0,1,1.663.47,2.218,2.218,0,0,1,1.015,1.277,6.377,6.377,0,0,1,.129,1.57v4.546Z" transform="translate(-868.945 -136.073)"/>
  <path id="Path_26" data-name="Path 26" d="M1195.247,185.449H1194v-.632a3.387,3.387,0,0,1-2.541.842,2.9,2.9,0,0,1-1.8-.55,1.938,1.938,0,0,1-.793-1.635,2.263,2.263,0,0,1,1.326-2.07,8.86,8.86,0,0,1,2.541-.583,2.528,2.528,0,0,0,1.214-.47l-.066-.517c-.161-.744-.751-1.116-1.764-1.116q-1.684,0-1.682,1.376h-1.359a2.635,2.635,0,0,1,2.995-2.524,4.186,4.186,0,0,1,1.893.4,2.059,2.059,0,0,1,1.181,1.425,7.107,7.107,0,0,1,.1,1.408v4.644ZM1194,181.582a3.137,3.137,0,0,1-1.24.356,6.9,6.9,0,0,0-1.649.388,1.193,1.193,0,0,0-.816,1.116.99.99,0,0,0,.456.873,1.773,1.773,0,0,0,1,.26,1.973,1.973,0,0,0,1.893-.873A4.567,4.567,0,0,0,1194,181.582Z" transform="translate(-910.732 -136.027)"/>
  <path id="Path_27" data-name="Path 27" d="M1253.856,169.989a4.359,4.359,0,0,1-.877,2.831,3.218,3.218,0,0,1-2.66,1.2,3.059,3.059,0,0,1-2.611-1.053v.826h-1.277V162.35h1.277v4.693a3.565,3.565,0,0,1,5.271.1A4.469,4.469,0,0,1,1253.856,169.989Zm-1.214-.066a3.213,3.213,0,0,0-.568-1.975,2.092,2.092,0,0,0-1.8-.842,2.316,2.316,0,0,0-2.564,2.314v1.149a2.329,2.329,0,0,0,2.548,2.363,2.078,2.078,0,0,0,1.834-.938A3.6,3.6,0,0,0,1252.641,169.923Z" transform="translate(-954.826 -124.368)"/>
  <path id="Path_28" data-name="Path 28" d="M1307.567,164.608a.771.771,0,0,1-.183.51.564.564,0,0,1-.449.218.545.545,0,0,1-.442-.218.787.787,0,0,1-.173-.51.8.8,0,0,1,.173-.51.539.539,0,0,1,.442-.218.561.561,0,0,1,.449.218A.77.77,0,0,1,1307.567,164.608Zm0,10.355h-1.247V167.34h1.247Z" transform="translate(-1000.705 -125.54)"/>
  <path id="Path_29" data-name="Path 29" d="M1342.487,173.844h-1.247V162.42h1.247Z" transform="translate(-1027.455 -124.422)"/>
  <path id="Path_30" data-name="Path 30" d="M1377.837,164.608a.771.771,0,0,1-.183.51.564.564,0,0,1-.449.218.545.545,0,0,1-.442-.218.788.788,0,0,1-.173-.51.8.8,0,0,1,.173-.51.539.539,0,0,1,.442-.218.561.561,0,0,1,.449.218A.77.77,0,0,1,1377.837,164.608Zm0,10.355h-1.247V167.34h1.247Z" transform="translate(-1054.535 -125.54)"/>
  <path id="Path_31" data-name="Path 31" d="M1412.147,171.956h-1.359v4.22a.967.967,0,0,0,1.036,1.088v1.247q-2.312-.049-2.314-2.024v-4.532h-1.31v-1.067h1.31V168.51h1.277v2.379h1.359Z" transform="translate(-1078.75 -129.087)"/>
  <path id="Path_32" data-name="Path 32" d="M1458.074,185.873a4.7,4.7,0,0,1-.777,2.847,3.033,3.033,0,0,1-2.62,1.2,3.148,3.148,0,0,1-3.107-2.2h1.488a1.9,1.9,0,0,0,3.383-.049,6.466,6.466,0,0,0,.288-2.3,2.86,2.86,0,0,1-2.379,1.116,2.825,2.825,0,0,1-1.6-.454,2.048,2.048,0,0,1-.905-1.376,5.785,5.785,0,0,1-.066-.971V178.67h1.278v4.351a4.256,4.256,0,0,0,.194,1.586,1.359,1.359,0,0,0,1.359.664q2.183,0,2.185-3.268V178.67h1.278v7.2Z" transform="translate(-1111.973 -136.87)"/>
  <path id="Path_33" data-name="Path 33" d="M88.86.28V23.5H83.322L77.9,14.109a.751.751,0,0,0-1.3,0L71.178,23.5H65.64V.28H88.862Z" transform="translate(-50.283 -0.214)" fill="#80db16"/>
  <path id="Path_34" data-name="Path 34" d="M23.222,124.24v13.452H0V114.47H18.878l-4.99,8.647a.746.746,0,0,0,.646,1.121h8.689Z" transform="translate(0 -87.69)" fill="#80db16"/>
  <path id="Path_35" data-name="Path 35" d="M154.492,114.48V137.7H131.27V124.25h8.689a.745.745,0,0,0,.646-1.121l-4.99-8.647h18.878Z" transform="translate(-100.559 -87.697)" fill="#80db16"/>
</svg>
