<svg xmlns="http://www.w3.org/2000/svg" width="35.206" height="35.206" viewBox="0 0 35.206 35.206">
  <g id="Icon_ionic-md-close-circle-outline" data-name="Icon ionic-md-close-circle-outline" transform="translate(-3.375 -3.375)">
    <path id="Path_134" data-name="Path 134" d="M20.978,6.929a14.043,14.043,0,1,1-9.936,4.113,13.99,13.99,0,0,1,9.936-4.113m0-3.554a17.6,17.6,0,1,0,17.6,17.6,17.6,17.6,0,0,0-17.6-17.6Z" fill="#fff"/>
    <path id="Path_135" data-name="Path 135" d="M28.291,25.828l-2.463,2.463-6.339-6.339L13.15,28.291l-2.463-2.463,6.339-6.339L10.688,13.15l2.463-2.463,6.339,6.339,6.339-6.339,2.463,2.463-6.339,6.339Z" transform="translate(1.489 1.489)" fill="#fff"/>
  </g>
</svg>
